<svg xmlns="http://www.w3.org/2000/svg" viewBox="0 0 3416 56" width="3416" height="56"><g fill="none" stroke="#1a1a1a" stroke-width="8" stroke-miterlimit="10"><path d="M28 7.5c-5.435 0-10.653 2.161-14.496 6.004C9.661 17.347 7.5 22.565 7.5 28c0 5.435 2.161 10.653 6.004 14.496C17.347 46.339 22.565 48.5 28 48.5c5.435 0 10.653-2.161 14.496-6.004C46.339 38.653 48.5 33.435 48.5 28c0-5.435-2.161-10.653-6.004-14.496C38.653 9.661 33.435 7.5 28 7.5z"/><path d="M13.5 13.5l29 29M42.5 13.5l-29 29" stroke-dasharray="0,41.05320550212858" stroke-dashoffset="41.012193"/></g><g fill="none" stroke="#1a1a1a" stroke-width="8" stroke-miterlimit="10"><path d="M84 7.5c-5.435 0-10.653 2.161-14.496 6.004C65.661 17.347 63.5 22.565 63.5 28c0 5.435 2.161 10.653 6.004 14.496C73.347 46.339 78.565 48.5 84 48.5c5.435 0 10.653-2.161 14.496-6.004 3.843-3.843 6.004-9.061 6.004-14.496 0-5.435-2.161-10.653-6.004-14.496C94.653 9.661 89.435 7.5 84 7.5z"/><path d="M69.5 13.5l29 29M98.5 13.5l-29 29" stroke-dasharray="0,41.05320550212858" stroke-dashoffset="41.012193"/></g><g fill="none" stroke="#1a1a1a" stroke-width="8" stroke-miterlimit="10"><path d="M140 7.5c-5.435 0-10.653 2.161-14.496 6.004-3.843 3.843-6.004 9.061-6.004 14.496 0 5.435 2.161 10.653 6.004 14.496 3.843 3.843 9.061 6.004 14.496 6.004 5.435 0 10.653-2.161 14.496-6.004 3.843-3.843 6.004-9.061 6.004-14.496 0-5.435-2.161-10.653-6.004-14.496C150.653 9.661 145.435 7.5 140 7.5z" stroke-dasharray="128.15042793625742,0.7833461919090585" stroke-dashoffset="128.150428"/><path d="M125.5 13.5l29 29M154.5 13.5l-29 29" stroke-dasharray="0,41.05320550212858" stroke-dashoffset="41.012193"/></g><g fill="none" stroke="#1a1a1a" stroke-width="8" stroke-miterlimit="10"><path d="M196 7.5c-5.435 0-10.653 2.161-14.496 6.004-3.843 3.843-6.004 9.061-6.004 14.496 0 5.435 2.161 10.653 6.004 14.496 3.843 3.843 9.061 6.004 14.496 6.004 5.435 0 10.653-2.161 14.496-6.004 3.843-3.843 6.004-9.061 6.004-14.496 0-5.435-2.161-10.653-6.004-14.496C206.653 9.661 201.435 7.5 196 7.5z" stroke-dasharray="125.82708322719556,3.1066909009709223" stroke-dashoffset="125.827083"/><path d="M181.5 13.5l29 29M210.5 13.5l-29 29" stroke-dasharray="0,41.05320550212858" stroke-dashoffset="41.012193"/></g><g fill="none" stroke="#1a1a1a" stroke-width="8" stroke-miterlimit="10"><path d="M252 7.5c-5.435 0-10.653 2.161-14.496 6.004-3.843 3.843-6.004 9.061-6.004 14.496 0 5.435 2.161 10.653 6.004 14.496 3.843 3.843 9.061 6.004 14.496 6.004 5.435 0 10.653-2.161 14.496-6.004 3.843-3.843 6.004-9.061 6.004-14.496 0-5.435-2.161-10.653-6.004-14.496C262.653 9.661 257.435 7.5 252 7.5z" stroke-dasharray="121.20479526926019,7.728978858906295" stroke-dashoffset="121.204795"/><path d="M237.5 13.5l29 29M266.5 13.5l-29 29" stroke-dasharray="0,41.05320550212858" stroke-dashoffset="41.012193"/></g><g fill="none" stroke="#1a1a1a" stroke-width="8" stroke-miterlimit="10"><path d="M308 7.5c-5.435 0-10.653 2.161-14.496 6.004-3.843 3.843-6.004 9.061-6.004 14.496 0 5.435 2.161 10.653 6.004 14.496 3.843 3.843 9.061 6.004 14.496 6.004 5.435 0 10.653-2.161 14.496-6.004 3.843-3.843 6.004-9.061 6.004-14.496 0-5.435-2.161-10.653-6.004-14.496C318.653 9.661 313.435 7.5 308 7.5z" stroke-dasharray="113.40916413173551,15.524609996430971" stroke-dashoffset="113.409164"/><path d="M293.5 13.5l29 29M322.5 13.5l-29 29" stroke-dasharray="0,41.05320550212858" stroke-dashoffset="41.012193"/></g><g fill="none" stroke="#1a1a1a" stroke-width="8" stroke-miterlimit="10"><path d="M364 7.5c-5.435 0-10.653 2.161-14.496 6.004-3.843 3.843-6.004 9.061-6.004 14.496 0 5.435 2.161 10.653 6.004 14.496 3.843 3.843 9.061 6.004 14.496 6.004 5.435 0 10.653-2.161 14.496-6.004 3.843-3.843 6.004-9.061 6.004-14.496 0-5.435-2.161-10.653-6.004-14.496C374.653 9.661 369.435 7.5 364 7.5z" stroke-dasharray="101.56969154834276,27.364082579823712" stroke-dashoffset="101.569692"/><path d="M349.5 13.5l29 29M378.5 13.5l-29 29" stroke-dasharray="0,41.05320550212858" stroke-dashoffset="41.012193"/></g><g fill="none" stroke="#1a1a1a" stroke-width="8" stroke-miterlimit="10"><path d="M420 7.5c-5.435 0-10.653 2.161-14.496 6.004-3.843 3.843-6.004 9.061-6.004 14.496 0 5.435 2.161 10.653 6.004 14.496 3.843 3.843 9.061 6.004 14.496 6.004 5.435 0 10.653-2.161 14.496-6.004 3.843-3.843 6.004-9.061 6.004-14.496 0-5.435-2.161-10.653-6.004-14.496C430.653 9.661 425.435 7.5 420 7.5z" stroke-dasharray="85.97791682347412,42.95585730469236" stroke-dashoffset="85.977917"/><path d="M405.5 13.5l29 29M434.5 13.5l-29 29" stroke-dasharray="0,41.05320550212858" stroke-dashoffset="41.012193"/></g><g fill="none" stroke="#1a1a1a" stroke-width="8" stroke-miterlimit="10"><path d="M476 7.5c-5.435 0-10.653 2.161-14.496 6.004-3.843 3.843-6.004 9.061-6.004 14.496 0 5.435 2.161 10.653 6.004 14.496 3.843 3.843 9.061 6.004 14.496 6.004 5.435 0 10.653-2.161 14.496-6.004 3.843-3.843 6.004-9.061 6.004-14.496 0-5.435-2.161-10.653-6.004-14.496C486.653 9.661 481.435 7.5 476 7.5z" stroke-dasharray="69.26074928418846,59.67302484397802" stroke-dashoffset="69.260749"/><path d="M461.5 13.5l29 29M490.5 13.5l-29 29" stroke-dasharray="0,41.05320550212858" stroke-dashoffset="41.012193"/></g><g fill="none" stroke="#1a1a1a" stroke-width="8" stroke-miterlimit="10"><path d="M532 7.5c-5.435 0-10.653 2.161-14.496 6.004-3.843 3.843-6.004 9.061-6.004 14.496 0 5.435 2.161 10.653 6.004 14.496 3.843 3.843 9.061 6.004 14.496 6.004 5.435 0 10.653-2.161 14.496-6.004 3.843-3.843 6.004-9.061 6.004-14.496 0-5.435-2.161-10.653-6.004-14.496C542.653 9.661 537.435 7.5 532 7.5z" stroke-dasharray="54.324624837981105,74.60914929018537" stroke-dashoffset="54.324625"/><path d="M517.5 13.5l29 29M546.5 13.5l-29 29" stroke-dasharray="0,41.05320550212858" stroke-dashoffset="41.012193"/></g><g fill="none" stroke="#1a1a1a" stroke-width="8" stroke-miterlimit="10"><path d="M588 7.5c-5.435 0-10.653 2.161-14.496 6.004-3.843 3.843-6.004 9.061-6.004 14.496 0 5.435 2.161 10.653 6.004 14.496 3.843 3.843 9.061 6.004 14.496 6.004 5.435 0 10.653-2.161 14.496-6.004 3.843-3.843 6.004-9.061 6.004-14.496 0-5.435-2.161-10.653-6.004-14.496C598.653 9.661 593.435 7.5 588 7.5z" stroke-dasharray="42.13282394782032,86.80095018034616" stroke-dashoffset="42.132824"/><path d="M573.5 13.5l29 29M602.5 13.5l-29 29" stroke-dasharray="0,41.05320550212858" stroke-dashoffset="41.012193"/></g><g fill="none" stroke="#1a1a1a" stroke-width="8" stroke-miterlimit="10"><path d="M644 7.5c-5.435 0-10.653 2.161-14.496 6.004-3.843 3.843-6.004 9.061-6.004 14.496 0 5.435 2.161 10.653 6.004 14.496 3.843 3.843 9.061 6.004 14.496 6.004 5.435 0 10.653-2.161 14.496-6.004 3.843-3.843 6.004-9.061 6.004-14.496 0-5.435-2.161-10.653-6.004-14.496C654.653 9.661 649.435 7.5 644 7.5z" stroke-dasharray="32.435888697766785,96.49788543039969" stroke-dashoffset="32.435889"/><path d="M629.5 13.5l29 29M658.5 13.5l-29 29" stroke-dasharray="0,41.05320550212858" stroke-dashoffset="41.012193"/></g><g fill="none" stroke="#1a1a1a" stroke-width="8" stroke-miterlimit="10"><path d="M700 7.5c-5.435 0-10.653 2.161-14.496 6.004-3.843 3.843-6.004 9.061-6.004 14.496 0 5.435 2.161 10.653 6.004 14.496 3.843 3.843 9.061 6.004 14.496 6.004 5.435 0 10.653-2.161 14.496-6.004 3.843-3.843 6.004-9.061 6.004-14.496 0-5.435-2.161-10.653-6.004-14.496C710.653 9.661 705.435 7.5 700 7.5z" stroke-dasharray="24.739417784519652,104.19435634364682" stroke-dashoffset="24.739418"/><path d="M685.5 13.5l29 29M714.5 13.5l-29 29" stroke-dasharray="0,41.05320550212858" stroke-dashoffset="41.012193"/></g><g fill="none" stroke="#1a1a1a" stroke-width="8" stroke-miterlimit="10"><path d="M756 7.5c-5.435 0-10.653 2.161-14.496 6.004-3.843 3.843-6.004 9.061-6.004 14.496 0 5.435 2.161 10.653 6.004 14.496 3.843 3.843 9.061 6.004 14.496 6.004 5.435 0 10.653-2.161 14.496-6.004 3.843-3.843 6.004-9.061 6.004-14.496 0-5.435-2.161-10.653-6.004-14.496C766.653 9.661 761.435 7.5 756 7.5z" stroke-dasharray="18.613598301905068,110.3201758262614" stroke-dashoffset="18.613598"/><path d="M741.5 13.5l29 29M770.5 13.5l-29 29" stroke-dasharray="0,41.05320550212858" stroke-dashoffset="41.012193"/></g><g fill="none" stroke="#1a1a1a" stroke-width="8" stroke-miterlimit="10"><path d="M812 7.5c-5.435 0-10.653 2.161-14.496 6.004-3.843 3.843-6.004 9.061-6.004 14.496 0 5.435 2.161 10.653 6.004 14.496 3.843 3.843 9.061 6.004 14.496 6.004 5.435 0 10.653-2.161 14.496-6.004 3.843-3.843 6.004-9.061 6.004-14.496 0-5.435-2.161-10.653-6.004-14.496C822.653 9.661 817.435 7.5 812 7.5z" stroke-dasharray="13.732841640164281,115.2009324880022" stroke-dashoffset="13.732842"/><path d="M797.5 13.5l29 29M826.5 13.5l-29 29" stroke-dasharray="0,41.05320550212858" stroke-dashoffset="41.012193"/></g><g fill="none" stroke="#1a1a1a" stroke-width="8" stroke-miterlimit="10"><path d="M868 7.5c-5.435 0-10.653 2.161-14.496 6.004-3.843 3.843-6.004 9.061-6.004 14.496 0 5.435 2.161 10.653 6.004 14.496 3.843 3.843 9.061 6.004 14.496 6.004 5.435 0 10.653-2.161 14.496-6.004 3.843-3.843 6.004-9.061 6.004-14.496 0-5.435-2.161-10.653-6.004-14.496C878.653 9.661 873.435 7.5 868 7.5z" stroke-dasharray="9.856550405688068,119.07722372247841" stroke-dashoffset="9.85655"/><path d="M853.5 13.5l29 29M882.5 13.5l-29 29" stroke-dasharray="0,41.05320550212858" stroke-dashoffset="41.012193"/></g><g fill="none" stroke="#1a1a1a" stroke-width="8" stroke-miterlimit="10"><path d="M924 7.5c-5.435 0-10.653 2.161-14.496 6.004-3.843 3.843-6.004 9.061-6.004 14.496 0 5.435 2.161 10.653 6.004 14.496 3.843 3.843 9.061 6.004 14.496 6.004 5.435 0 10.653-2.161 14.496-6.004 3.843-3.843 6.004-9.061 6.004-14.496 0-5.435-2.161-10.653-6.004-14.496C934.653 9.661 929.435 7.5 924 7.5z" stroke-dasharray="6.805661815860678,122.1281123123058" stroke-dashoffset="6.805662"/><path d="M909.5 13.5l29 29M938.5 13.5l-29 29" stroke-dasharray="0,41.05320550212858" stroke-dashoffset="41.012193"/></g><g fill="none" stroke="#1a1a1a" stroke-width="8" stroke-miterlimit="10"><path d="M980 7.5c-5.435 0-10.653 2.161-14.496 6.004-3.843 3.843-6.004 9.061-6.004 14.496 0 5.435 2.161 10.653 6.004 14.496 3.843 3.843 9.061 6.004 14.496 6.004 5.435 0 10.653-2.161 14.496-6.004 3.843-3.843 6.004-9.061 6.004-14.496 0-5.435-2.161-10.653-6.004-14.496C990.653 9.661 985.435 7.5 980 7.5z" stroke-dasharray="4.444669530638598,124.48910459752788" stroke-dashoffset="4.44467"/><path d="M965.5 13.5l29 29M994.5 13.5l-29 29" stroke-dasharray="0,41.05320550212858" stroke-dashoffset="41.012193"/></g><g fill="none" stroke="#1a1a1a" stroke-width="8" stroke-miterlimit="10"><path d="M1036 7.5c-5.435 0-10.653 2.161-14.496 6.004-3.843 3.843-6.004 9.061-6.004 14.496 0 5.435 2.161 10.653 6.004 14.496 3.843 3.843 9.061 6.004 14.496 6.004 5.435 0 10.653-2.161 14.496-6.004 3.843-3.843 6.004-9.061 6.004-14.496 0-5.435-2.161-10.653-6.004-14.496-3.843-3.843-9.061-6.004-14.496-6.004z" stroke-dasharray="2.669084836892094,126.26468929127438" stroke-dashoffset="2.669085"/><path d="M1021.5 13.5l29 29M1050.5 13.5l-29 29" stroke-dasharray="0,41.05320550212858" stroke-dashoffset="41.012193"/></g><g fill="none" stroke="#1a1a1a" stroke-width="8" stroke-miterlimit="10"><path d="M1092 7.5c-5.435 0-10.653 2.161-14.496 6.004-3.843 3.843-6.004 9.061-6.004 14.496 0 5.435 2.161 10.653 6.004 14.496 3.843 3.843 9.061 6.004 14.496 6.004 5.435 0 10.653-2.161 14.496-6.004 3.843-3.843 6.004-9.061 6.004-14.496 0-5.435-2.161-10.653-6.004-14.496-3.843-3.843-9.061-6.004-14.496-6.004z" stroke-dasharray="1.3968519655065552,127.53692216265992" stroke-dashoffset="1.396852"/><path d="M1077.5 13.5l29 29M1106.5 13.5l-29 29" stroke-dasharray="0,41.05320550212858" stroke-dashoffset="41.012193"/></g><g fill="none" stroke="#1a1a1a" stroke-width="8" stroke-miterlimit="10"><path d="M1148 7.5c-5.435 0-10.653 2.161-14.496 6.004-3.843 3.843-6.004 9.061-6.004 14.496 0 5.435 2.161 10.653 6.004 14.496 3.843 3.843 9.061 6.004 14.496 6.004 5.435 0 10.653-2.161 14.496-6.004 3.843-3.843 6.004-9.061 6.004-14.496 0-5.435-2.161-10.653-6.004-14.496-3.843-3.843-9.061-6.004-14.496-6.004z" stroke-dasharray="0.5624364482209862,128.3713376799455" stroke-dashoffset=".562436"/><path d="M1133.5 13.5l29 29" stroke-dasharray="0.00007899185244141745,41.05312651027614" stroke-dashoffset="41.012193"/><path d="M1162.5 13.5l-29 29" stroke-dasharray="0,41.05320550212858" stroke-dashoffset="41.012193"/></g><g fill="none" stroke="#1a1a1a" stroke-width="8" stroke-miterlimit="10"><path d="M1204 7.5c-5.435 0-10.653 2.161-14.496 6.004-3.843 3.843-6.004 9.061-6.004 14.496 0 5.435 2.161 10.653 6.004 14.496 3.843 3.843 9.061 6.004 14.496 6.004 5.435 0 10.653-2.161 14.496-6.004 3.843-3.843 6.004-9.061 6.004-14.496 0-5.435-2.161-10.653-6.004-14.496-3.843-3.843-9.061-6.004-14.496-6.004z" stroke-dasharray="0.11269486593018734,128.82107926223628" stroke-dashoffset=".112695"/><path d="M1189.5 13.5l29 29" stroke-dasharray="0.22670397054173375,40.82650153158685" stroke-dashoffset="41.012193"/><path d="M1218.5 13.5l-29 29" stroke-dasharray="0,41.05320550212858" stroke-dashoffset="41.012193"/></g><g fill="none" stroke="#1a1a1a" stroke-width="8" stroke-miterlimit="10"><path d="M1260 7.5c-5.435 0-10.653 2.161-14.496 6.004-3.843 3.843-6.004 9.061-6.004 14.496 0 5.435 2.161 10.653 6.004 14.496 3.843 3.843 9.061 6.004 14.496 6.004 5.435 0 10.653-2.161 14.496-6.004 3.843-3.843 6.004-9.061 6.004-14.496 0-5.435-2.161-10.653-6.004-14.496-3.843-3.843-9.061-6.004-14.496-6.004z" stroke-dasharray="0,128.93377412816648" stroke-dashoffset="128.804969"/><path d="M1245.5 13.5l29 29" stroke-dasharray="0.99138899144332,40.06181651068526" stroke-dashoffset="41.012193"/><path d="M1274.5 13.5l-29 29" stroke-dasharray="0,41.05320550212858" stroke-dashoffset="41.012193"/></g><g fill="none" stroke="#1a1a1a" stroke-width="8" stroke-miterlimit="10"><path d="M1316 7.5c-5.435 0-10.653 2.161-14.496 6.004-3.843 3.843-6.004 9.061-6.004 14.496 0 5.435 2.161 10.653 6.004 14.496 3.843 3.843 9.061 6.004 14.496 6.004 5.435 0 10.653-2.161 14.496-6.004 3.843-3.843 6.004-9.061 6.004-14.496 0-5.435-2.161-10.653-6.004-14.496-3.843-3.843-9.061-6.004-14.496-6.004z" stroke-dasharray="0,128.93377412816648" stroke-dashoffset="128.804969"/><path d="M1301.5 13.5l29 29" stroke-dasharray="2.4977394685600887,38.55546603356849" stroke-dashoffset="41.012193"/><path d="M1330.5 13.5l-29 29" stroke-dasharray="0,41.05320550212858" stroke-dashoffset="41.012193"/></g><g fill="none" stroke="#1a1a1a" stroke-width="8" stroke-miterlimit="10"><path d="M1372 7.5c-5.435 0-10.653 2.161-14.496 6.004-3.843 3.843-6.004 9.061-6.004 14.496 0 5.435 2.161 10.653 6.004 14.496 3.843 3.843 9.061 6.004 14.496 6.004 5.435 0 10.653-2.161 14.496-6.004 3.843-3.843 6.004-9.061 6.004-14.496 0-5.435-2.161-10.653-6.004-14.496-3.843-3.843-9.061-6.004-14.496-6.004z" stroke-dasharray="0,128.93377412816648" stroke-dashoffset="128.804969"/><path d="M1357.5 13.5l29 29" stroke-dasharray="5.026826904902816,36.026378597225765" stroke-dashoffset="41.012193"/><path d="M1386.5 13.5l-29 29" stroke-dasharray="0,41.05320550212858" stroke-dashoffset="41.012193"/></g><g fill="none" stroke="#1a1a1a" stroke-width="8" stroke-miterlimit="10"><path d="M1428 7.5c-5.435 0-10.653 2.161-14.496 6.004-3.843 3.843-6.004 9.061-6.004 14.496 0 5.435 2.161 10.653 6.004 14.496 3.843 3.843 9.061 6.004 14.496 6.004 5.435 0 10.653-2.161 14.496-6.004 3.843-3.843 6.004-9.061 6.004-14.496 0-5.435-2.161-10.653-6.004-14.496-3.843-3.843-9.061-6.004-14.496-6.004z" stroke-dasharray="0,128.93377412816648" stroke-dashoffset="128.804969"/><path d="M1413.5 13.5l29 29" stroke-dasharray="8.850614197720194,32.20259130440839" stroke-dashoffset="41.012193"/><path d="M1442.5 13.5l-29 29" stroke-dasharray="0,41.05320550212858" stroke-dashoffset="41.012193"/></g><g fill="none" stroke="#1a1a1a" stroke-width="8" stroke-miterlimit="10"><path d="M1484 7.5c-5.435 0-10.653 2.161-14.496 6.004-3.843 3.843-6.004 9.061-6.004 14.496 0 5.435 2.161 10.653 6.004 14.496 3.843 3.843 9.061 6.004 14.496 6.004 5.435 0 10.653-2.161 14.496-6.004 3.843-3.843 6.004-9.061 6.004-14.496 0-5.435-2.161-10.653-6.004-14.496-3.843-3.843-9.061-6.004-14.496-6.004z" stroke-dasharray="0,128.93377412816648" stroke-dashoffset="128.804969"/><path d="M1469.5 13.5l29 29" stroke-dasharray="13.849889760795032,27.20331574133355" stroke-dashoffset="41.012193"/><path d="M1498.5 13.5l-29 29" stroke-dasharray="0,41.05320550212858" stroke-dashoffset="41.012193"/></g><g fill="none" stroke="#1a1a1a" stroke-width="8" stroke-miterlimit="10"><path d="M1540 7.5c-5.435 0-10.653 2.161-14.496 6.004-3.843 3.843-6.004 9.061-6.004 14.496 0 5.435 2.161 10.653 6.004 14.496 3.843 3.843 9.061 6.004 14.496 6.004 5.435 0 10.653-2.161 14.496-6.004 3.843-3.843 6.004-9.061 6.004-14.496 0-5.435-2.161-10.653-6.004-14.496-3.843-3.843-9.061-6.004-14.496-6.004z" stroke-dasharray="0,128.93377412816648" stroke-dashoffset="128.804969"/><path d="M1525.5 13.5l29 29" stroke-dasharray="19.16448616561143,21.88871933651715" stroke-dashoffset="41.012193"/><path d="M1554.5 13.5l-29 29" stroke-dasharray="0,41.05320550212858" stroke-dashoffset="41.012193"/></g><g fill="none" stroke="#1a1a1a" stroke-width="8" stroke-miterlimit="10"><path d="M1596 7.5c-5.435 0-10.653 2.161-14.496 6.004-3.843 3.843-6.004 9.061-6.004 14.496 0 5.435 2.161 10.653 6.004 14.496 3.843 3.843 9.061 6.004 14.496 6.004 5.435 0 10.653-2.161 14.496-6.004 3.843-3.843 6.004-9.061 6.004-14.496 0-5.435-2.161-10.653-6.004-14.496-3.843-3.843-9.061-6.004-14.496-6.004z" stroke-dasharray="0,128.93377412816648" stroke-dashoffset="128.804969"/><path d="M1581.5 13.5l29 29" stroke-dasharray="23.88714552398975,17.16605997813883" stroke-dashoffset="41.012193"/><path d="M1610.5 13.5l-29 29" stroke-dasharray="0,41.05320550212858" stroke-dashoffset="41.012193"/></g><g fill="none" stroke="#1a1a1a" stroke-width="8" stroke-miterlimit="10"><path d="M1652 7.5c-5.435 0-10.653 2.161-14.496 6.004-3.843 3.843-6.004 9.061-6.004 14.496 0 5.435 2.161 10.653 6.004 14.496 3.843 3.843 9.061 6.004 14.496 6.004 5.435 0 10.653-2.161 14.496-6.004 3.843-3.843 6.004-9.061 6.004-14.496 0-5.435-2.161-10.653-6.004-14.496-3.843-3.843-9.061-6.004-14.496-6.004z" stroke-dasharray="0,128.93377412816648" stroke-dashoffset="128.804969"/><path d="M1637.5 13.5l29 29" stroke-dasharray="27.73460386688914,13.318601635239439" stroke-dashoffset="41.012193"/><path d="M1666.5 13.5l-29 29" stroke-dasharray="0,41.05320550212858" stroke-dashoffset="41.012193"/></g><g fill="none" stroke="#1a1a1a" stroke-width="8" stroke-miterlimit="10"><path d="M1708 7.5c-5.435 0-10.653 2.161-14.496 6.004-3.843 3.843-6.004 9.061-6.004 14.496 0 5.435 2.161 10.653 6.004 14.496 3.843 3.843 9.061 6.004 14.496 6.004 5.435 0 10.653-2.161 14.496-6.004 3.843-3.843 6.004-9.061 6.004-14.496 0-5.435-2.161-10.653-6.004-14.496-3.843-3.843-9.061-6.004-14.496-6.004z" stroke-dasharray="0,128.93377412816648" stroke-dashoffset="128.804969"/><path d="M1693.5 13.5l29 29" stroke-dasharray="30.79366526372044,10.259540238408139" stroke-dashoffset="41.012193"/><path d="M1722.5 13.5l-29 29" stroke-dasharray="0,41.05320550212858" stroke-dashoffset="41.012193"/></g><g fill="none" stroke="#1a1a1a" stroke-width="8" stroke-miterlimit="10"><path d="M1764 7.5c-5.435 0-10.653 2.161-14.496 6.004-3.843 3.843-6.004 9.061-6.004 14.496 0 5.435 2.161 10.653 6.004 14.496 3.843 3.843 9.061 6.004 14.496 6.004 5.435 0 10.653-2.161 14.496-6.004 3.843-3.843 6.004-9.061 6.004-14.496 0-5.435-2.161-10.653-6.004-14.496-3.843-3.843-9.061-6.004-14.496-6.004z" stroke-dasharray="0,128.93377412816648" stroke-dashoffset="128.804969"/><path d="M1749.5 13.5l29 29" stroke-dasharray="33.22185790298953,7.831347599139057" stroke-dashoffset="41.012193"/><path d="M1778.5 13.5l-29 29" stroke-dasharray="0,41.05320550212858" stroke-dashoffset="41.012193"/></g><g fill="none" stroke="#1a1a1a" stroke-width="8" stroke-miterlimit="10"><path d="M1820 7.5c-5.435 0-10.653 2.161-14.496 6.004-3.843 3.843-6.004 9.061-6.004 14.496 0 5.435 2.161 10.653 6.004 14.496 3.843 3.843 9.061 6.004 14.496 6.004 5.435 0 10.653-2.161 14.496-6.004 3.843-3.843 6.004-9.061 6.004-14.496 0-5.435-2.161-10.653-6.004-14.496-3.843-3.843-9.061-6.004-14.496-6.004z" stroke-dasharray="0,128.93377412816648" stroke-dashoffset="128.804969"/><path d="M1805.5 13.5l29 29" stroke-dasharray="35.154710265026274,5.898495237102304" stroke-dashoffset="41.012193"/><path d="M1834.5 13.5l-29 29" stroke-dasharray="0,41.05320550212858" stroke-dashoffset="41.012193"/></g><g fill="none" stroke="#1a1a1a" stroke-width="8" stroke-miterlimit="10"><path d="M1876 7.5c-5.435 0-10.653 2.161-14.496 6.004-3.843 3.843-6.004 9.061-6.004 14.496 0 5.435 2.161 10.653 6.004 14.496 3.843 3.843 9.061 6.004 14.496 6.004 5.435 0 10.653-2.161 14.496-6.004 3.843-3.843 6.004-9.061 6.004-14.496 0-5.435-2.161-10.653-6.004-14.496-3.843-3.843-9.061-6.004-14.496-6.004z" stroke-dasharray="0,128.93377412816648" stroke-dashoffset="128.804969"/><path d="M1861.5 13.5l29 29" stroke-dasharray="36.6946583235292,4.3585471785993875" stroke-dashoffset="41.012193"/><path d="M1890.5 13.5l-29 29" stroke-dasharray="0,41.05320550212858" stroke-dashoffset="41.012193"/></g><g fill="none" stroke="#1a1a1a" stroke-width="8" stroke-miterlimit="10"><path d="M1932 7.5c-5.435 0-10.653 2.161-14.496 6.004-3.843 3.843-6.004 9.061-6.004 14.496 0 5.435 2.161 10.653 6.004 14.496 3.843 3.843 9.061 6.004 14.496 6.004 5.435 0 10.653-2.161 14.496-6.004 3.843-3.843 6.004-9.061 6.004-14.496 0-5.435-2.161-10.653-6.004-14.496-3.843-3.843-9.061-6.004-14.496-6.004z" stroke-dasharray="0,128.93377412816648" stroke-dashoffset="128.804969"/><path d="M1917.5 13.5l29 29" stroke-dasharray="37.91739145521091,3.135814046917666" stroke-dashoffset="41.012193"/><path d="M1946.5 13.5l-29 29" stroke-dasharray="0,41.05320550212858" stroke-dashoffset="41.012193"/></g><g fill="none" stroke="#1a1a1a" stroke-width="8" stroke-miterlimit="10"><path d="M1988 7.5c-5.435 0-10.653 2.161-14.496 6.004-3.843 3.843-6.004 9.061-6.004 14.496 0 5.435 2.161 10.653 6.004 14.496 3.843 3.843 9.061 6.004 14.496 6.004 5.435 0 10.653-2.161 14.496-6.004 3.843-3.843 6.004-9.061 6.004-14.496 0-5.435-2.161-10.653-6.004-14.496-3.843-3.843-9.061-6.004-14.496-6.004z" stroke-dasharray="0,128.93377412816648" stroke-dashoffset="128.804969"/><path d="M1973.5 13.5l29 29" stroke-dasharray="38.87927244935789,2.1739330527706917" stroke-dashoffset="41.012193"/><path d="M2002.5 13.5l-29 29" stroke-dasharray="0,41.05320550212858" stroke-dashoffset="41.012193"/></g><g fill="none" stroke="#1a1a1a" stroke-width="8" stroke-miterlimit="10"><path d="M2044 7.5c-5.435 0-10.653 2.161-14.496 6.004-3.843 3.843-6.004 9.061-6.004 14.496 0 5.435 2.161 10.653 6.004 14.496 3.843 3.843 9.061 6.004 14.496 6.004 5.435 0 10.653-2.161 14.496-6.004 3.843-3.843 6.004-9.061 6.004-14.496 0-5.435-2.161-10.653-6.004-14.496-3.843-3.843-9.061-6.004-14.496-6.004z" stroke-dasharray="0,128.93377412816648" stroke-dashoffset="128.804969"/><path d="M2029.5 13.5l29 29" stroke-dasharray="39.62298549912071,1.4302200030078702" stroke-dashoffset="41.012193"/><path d="M2058.5 13.5l-29 29" stroke-dasharray="0,41.05320550212858" stroke-dashoffset="41.012193"/></g><g fill="none" stroke="#1a1a1a" stroke-width="8" stroke-miterlimit="10"><path d="M2100 7.5c-5.435 0-10.653 2.161-14.496 6.004-3.843 3.843-6.004 9.061-6.004 14.496 0 5.435 2.161 10.653 6.004 14.496 3.843 3.843 9.061 6.004 14.496 6.004 5.435 0 10.653-2.161 14.496-6.004 3.843-3.843 6.004-9.061 6.004-14.496 0-5.435-2.161-10.653-6.004-14.496-3.843-3.843-9.061-6.004-14.496-6.004z" stroke-dasharray="0,128.93377412816648" stroke-dashoffset="128.804969"/><path d="M2085.5 13.5l29 29" stroke-dasharray="40.18146900190037,0.8717365002282164" stroke-dashoffset="41.012193"/><path d="M2114.5 13.5l-29 29" stroke-dasharray="0,41.05320550212858" stroke-dashoffset="41.012193"/></g><g fill="none" stroke="#1a1a1a" stroke-width="8" stroke-miterlimit="10"><path d="M2156 7.5c-5.435 0-10.653 2.161-14.496 6.004-3.843 3.843-6.004 9.061-6.004 14.496 0 5.435 2.161 10.653 6.004 14.496 3.843 3.843 9.061 6.004 14.496 6.004 5.435 0 10.653-2.161 14.496-6.004 3.843-3.843 6.004-9.061 6.004-14.496 0-5.435-2.161-10.653-6.004-14.496-3.843-3.843-9.061-6.004-14.496-6.004z" stroke-dasharray="0,128.93377412816648" stroke-dashoffset="128.804969"/><path d="M2141.5 13.5l29 29" stroke-dasharray="40.58060794485493,0.47259755727364844" stroke-dashoffset="41.012193"/><path d="M2170.5 13.5l-29 29" stroke-dasharray="0,41.05320550212858" stroke-dashoffset="41.012193"/></g><g fill="none" stroke="#1a1a1a" stroke-width="8" stroke-miterlimit="10"><path d="M2212 7.5c-5.435 0-10.653 2.161-14.496 6.004-3.843 3.843-6.004 9.061-6.004 14.496 0 5.435 2.161 10.653 6.004 14.496 3.843 3.843 9.061 6.004 14.496 6.004 5.435 0 10.653-2.161 14.496-6.004 3.843-3.843 6.004-9.061 6.004-14.496 0-5.435-2.161-10.653-6.004-14.496-3.843-3.843-9.061-6.004-14.496-6.004z" stroke-dasharray="0,128.93377412816648" stroke-dashoffset="128.804969"/><path d="M2197.5 13.5l29 29" stroke-dasharray="40.84108882475142,0.21211667737716383" stroke-dashoffset="41.012193"/><path d="M2226.5 13.5l-29 29" stroke-dasharray="0,41.05320550212858" stroke-dashoffset="41.012193"/></g><g fill="none" stroke="#1a1a1a" stroke-width="8" stroke-miterlimit="10"><path d="M2268 7.5c-5.435 0-10.653 2.161-14.496 6.004-3.843 3.843-6.004 9.061-6.004 14.496 0 5.435 2.161 10.653 6.004 14.496 3.843 3.843 9.061 6.004 14.496 6.004 5.435 0 10.653-2.161 14.496-6.004 3.843-3.843 6.004-9.061 6.004-14.496 0-5.435-2.161-10.653-6.004-14.496-3.843-3.843-9.061-6.004-14.496-6.004z" stroke-dasharray="0,128.93377412816648" stroke-dashoffset="128.804969"/><path d="M2253.5 13.5l29 29" stroke-dasharray="40.97969646999019,0.07350903213839145" stroke-dashoffset="41.012193"/><path d="M2282.5 13.5l-29 29" stroke-dasharray="0.16533581383182402,40.88786968829675" stroke-dashoffset="41.012193"/></g><g fill="none" stroke="#1a1a1a" stroke-width="8" stroke-miterlimit="10"><path d="M2324 7.5c-5.435 0-10.653 2.161-14.496 6.004-3.843 3.843-6.004 9.061-6.004 14.496 0 5.435 2.161 10.653 6.004 14.496 3.843 3.843 9.061 6.004 14.496 6.004 5.435 0 10.653-2.161 14.496-6.004 3.843-3.843 6.004-9.061 6.004-14.496 0-5.435-2.161-10.653-6.004-14.496-3.843-3.843-9.061-6.004-14.496-6.004z" stroke-dasharray="0,128.93377412816648" stroke-dashoffset="128.804969"/><path d="M2309.5 13.5l29 29"/><path d="M2338.5 13.5l-29 29" stroke-dasharray="0.8398178271500414,40.21338767497854" stroke-dashoffset="41.012193"/></g><g fill="none" stroke="#1a1a1a" stroke-width="8" stroke-miterlimit="10"><path d="M2380 7.5c-5.435 0-10.653 2.161-14.496 6.004-3.843 3.843-6.004 9.061-6.004 14.496 0 5.435 2.161 10.653 6.004 14.496 3.843 3.843 9.061 6.004 14.496 6.004 5.435 0 10.653-2.161 14.496-6.004 3.843-3.843 6.004-9.061 6.004-14.496 0-5.435-2.161-10.653-6.004-14.496-3.843-3.843-9.061-6.004-14.496-6.004z" stroke-dasharray="0,128.93377412816648" stroke-dashoffset="128.804969"/><path d="M2365.5 13.5l29 29"/><path d="M2394.5 13.5l-29 29" stroke-dasharray="2.21735648479751,38.83584901733107" stroke-dashoffset="41.012193"/></g><g fill="none" stroke="#1a1a1a" stroke-width="8" stroke-miterlimit="10"><path d="M2436 7.5c-5.435 0-10.653 2.161-14.496 6.004-3.843 3.843-6.004 9.061-6.004 14.496 0 5.435 2.161 10.653 6.004 14.496 3.843 3.843 9.061 6.004 14.496 6.004 5.435 0 10.653-2.161 14.496-6.004 3.843-3.843 6.004-9.061 6.004-14.496 0-5.435-2.161-10.653-6.004-14.496-3.843-3.843-9.061-6.004-14.496-6.004z" stroke-dasharray="0,128.93377412816648" stroke-dashoffset="128.804969"/><path d="M2421.5 13.5l29 29"/><path d="M2450.5 13.5l-29 29" stroke-dasharray="4.566534509770313,36.48667099235827" stroke-dashoffset="41.012193"/></g><g fill="none" stroke="#1a1a1a" stroke-width="8" stroke-miterlimit="10"><path d="M2492 7.5c-5.435 0-10.653 2.161-14.496 6.004-3.843 3.843-6.004 9.061-6.004 14.496 0 5.435 2.161 10.653 6.004 14.496 3.843 3.843 9.061 6.004 14.496 6.004 5.435 0 10.653-2.161 14.496-6.004 3.843-3.843 6.004-9.061 6.004-14.496 0-5.435-2.161-10.653-6.004-14.496-3.843-3.843-9.061-6.004-14.496-6.004z" stroke-dasharray="0,128.93377412816648" stroke-dashoffset="128.804969"/><path d="M2477.5 13.5l29 29"/><path d="M2506.5 13.5l-29 29" stroke-dasharray="8.17358746532719,32.87961803680139" stroke-dashoffset="41.012193"/></g><g fill="none" stroke="#1a1a1a" stroke-width="8" stroke-miterlimit="10"><path d="M2548 7.5c-5.435 0-10.653 2.161-14.496 6.004-3.843 3.843-6.004 9.061-6.004 14.496 0 5.435 2.161 10.653 6.004 14.496 3.843 3.843 9.061 6.004 14.496 6.004 5.435 0 10.653-2.161 14.496-6.004 3.843-3.843 6.004-9.061 6.004-14.496 0-5.435-2.161-10.653-6.004-14.496-3.843-3.843-9.061-6.004-14.496-6.004z" stroke-dasharray="0,128.93377412816648" stroke-dashoffset="128.804969"/><path d="M2533.5 13.5l29 29"/><path d="M2562.5 13.5l-29 29" stroke-dasharray="13.015987688785247,28.037217813343336" stroke-dashoffset="41.012193"/></g><g fill="none" stroke="#1a1a1a" stroke-width="8" stroke-miterlimit="10"><path d="M2604 7.5c-5.435 0-10.653 2.161-14.496 6.004-3.843 3.843-6.004 9.061-6.004 14.496 0 5.435 2.161 10.653 6.004 14.496 3.843 3.843 9.061 6.004 14.496 6.004 5.435 0 10.653-2.161 14.496-6.004 3.843-3.843 6.004-9.061 6.004-14.496 0-5.435-2.161-10.653-6.004-14.496-3.843-3.843-9.061-6.004-14.496-6.004z" stroke-dasharray="0,128.93377412816648" stroke-dashoffset="128.804969"/><path d="M2589.5 13.5l29 29"/><path d="M2618.5 13.5l-29 29" stroke-dasharray="18.33861303935388,22.714592462774696" stroke-dashoffset="41.012193"/></g><g fill="none" stroke="#1a1a1a" stroke-width="8" stroke-miterlimit="10"><path d="M2660 7.5c-5.435 0-10.653 2.161-14.496 6.004-3.843 3.843-6.004 9.061-6.004 14.496 0 5.435 2.161 10.653 6.004 14.496 3.843 3.843 9.061 6.004 14.496 6.004 5.435 0 10.653-2.161 14.496-6.004 3.843-3.843 6.004-9.061 6.004-14.496 0-5.435-2.161-10.653-6.004-14.496-3.843-3.843-9.061-6.004-14.496-6.004z" stroke-dasharray="0,128.93377412816648" stroke-dashoffset="128.804969"/><path d="M2645.5 13.5l29 29"/><path d="M2674.5 13.5l-29 29" stroke-dasharray="23.17793726809583,17.87526823403275" stroke-dashoffset="41.012193"/></g><g fill="none" stroke="#1a1a1a" stroke-width="8" stroke-miterlimit="10"><path d="M2716 7.5c-5.435 0-10.653 2.161-14.496 6.004-3.843 3.843-6.004 9.061-6.004 14.496 0 5.435 2.161 10.653 6.004 14.496 3.843 3.843 9.061 6.004 14.496 6.004 5.435 0 10.653-2.161 14.496-6.004 3.843-3.843 6.004-9.061 6.004-14.496 0-5.435-2.161-10.653-6.004-14.496-3.843-3.843-9.061-6.004-14.496-6.004z" stroke-dasharray="0,128.93377412816648" stroke-dashoffset="128.804969"/><path d="M2701.5 13.5l29 29"/><path d="M2730.5 13.5l-29 29" stroke-dasharray="27.15635651558678,13.896848986541801" stroke-dashoffset="41.012193"/></g><g fill="none" stroke="#1a1a1a" stroke-width="8" stroke-miterlimit="10"><path d="M2772 7.5c-5.435 0-10.653 2.161-14.496 6.004-3.843 3.843-6.004 9.061-6.004 14.496 0 5.435 2.161 10.653 6.004 14.496 3.843 3.843 9.061 6.004 14.496 6.004 5.435 0 10.653-2.161 14.496-6.004 3.843-3.843 6.004-9.061 6.004-14.496 0-5.435-2.161-10.653-6.004-14.496-3.843-3.843-9.061-6.004-14.496-6.004z" stroke-dasharray="0,128.93377412816648" stroke-dashoffset="128.804969"/><path d="M2757.5 13.5l29 29"/><path d="M2786.5 13.5l-29 29" stroke-dasharray="30.326911116608326,10.726294385520253" stroke-dashoffset="41.012193"/></g><g fill="none" stroke="#1a1a1a" stroke-width="8" stroke-miterlimit="10"><path d="M2828 7.5c-5.435 0-10.653 2.161-14.496 6.004-3.843 3.843-6.004 9.061-6.004 14.496 0 5.435 2.161 10.653 6.004 14.496 3.843 3.843 9.061 6.004 14.496 6.004 5.435 0 10.653-2.161 14.496-6.004 3.843-3.843 6.004-9.061 6.004-14.496 0-5.435-2.161-10.653-6.004-14.496-3.843-3.843-9.061-6.004-14.496-6.004z" stroke-dasharray="0,128.93377412816648" stroke-dashoffset="128.804969"/><path d="M2813.5 13.5l29 29"/><path d="M2842.5 13.5l-29 29" stroke-dasharray="32.844464440557715,8.208741061570866" stroke-dashoffset="41.012193"/></g><g fill="none" stroke="#1a1a1a" stroke-width="8" stroke-miterlimit="10"><path d="M2884 7.5c-5.435 0-10.653 2.161-14.496 6.004-3.843 3.843-6.004 9.061-6.004 14.496 0 5.435 2.161 10.653 6.004 14.496 3.843 3.843 9.061 6.004 14.496 6.004 5.435 0 10.653-2.161 14.496-6.004 3.843-3.843 6.004-9.061 6.004-14.496 0-5.435-2.161-10.653-6.004-14.496-3.843-3.843-9.061-6.004-14.496-6.004z" stroke-dasharray="0,128.93377412816648" stroke-dashoffset="128.804969"/><path d="M2869.5 13.5l29 29"/><path d="M2898.5 13.5l-29 29" stroke-dasharray="34.848873863032274,6.204331639096306" stroke-dashoffset="41.012193"/></g><g fill="none" stroke="#1a1a1a" stroke-width="8" stroke-miterlimit="10"><path d="M2940 7.5c-5.435 0-10.653 2.161-14.496 6.004-3.843 3.843-6.004 9.061-6.004 14.496 0 5.435 2.161 10.653 6.004 14.496 3.843 3.843 9.061 6.004 14.496 6.004 5.435 0 10.653-2.161 14.496-6.004 3.843-3.843 6.004-9.061 6.004-14.496 0-5.435-2.161-10.653-6.004-14.496-3.843-3.843-9.061-6.004-14.496-6.004z" stroke-dasharray="0,128.93377412816648" stroke-dashoffset="128.804969"/><path d="M2925.5 13.5l29 29"/><path d="M2954.5 13.5l-29 29" stroke-dasharray="36.447048867801875,4.606156634326704" stroke-dashoffset="41.012193"/></g><g fill="none" stroke="#1a1a1a" stroke-width="8" stroke-miterlimit="10"><path d="M2996 7.5c-5.435 0-10.653 2.161-14.496 6.004-3.843 3.843-6.004 9.061-6.004 14.496 0 5.435 2.161 10.653 6.004 14.496 3.843 3.843 9.061 6.004 14.496 6.004 5.435 0 10.653-2.161 14.496-6.004 3.843-3.843 6.004-9.061 6.004-14.496 0-5.435-2.161-10.653-6.004-14.496-3.843-3.843-9.061-6.004-14.496-6.004z" stroke-dasharray="0,128.93377412816648" stroke-dashoffset="128.804969"/><path d="M2981.5 13.5l29 29"/><path d="M3010.5 13.5l-29 29" stroke-dasharray="37.71810858421381,3.335096917914775" stroke-dashoffset="41.012193"/></g><g fill="none" stroke="#1a1a1a" stroke-width="8" stroke-miterlimit="10"><path d="M3052 7.5c-5.435 0-10.653 2.161-14.496 6.004-3.843 3.843-6.004 9.061-6.004 14.496 0 5.435 2.161 10.653 6.004 14.496 3.843 3.843 9.061 6.004 14.496 6.004 5.435 0 10.653-2.161 14.496-6.004 3.843-3.843 6.004-9.061 6.004-14.496 0-5.435-2.161-10.653-6.004-14.496-3.843-3.843-9.061-6.004-14.496-6.004z" stroke-dasharray="0,128.93377412816648" stroke-dashoffset="128.804969"/><path d="M3037.5 13.5l29 29"/><path d="M3066.5 13.5l-29 29" stroke-dasharray="38.72088034798942,2.3323251541391623" stroke-dashoffset="41.012193"/></g><g fill="none" stroke="#1a1a1a" stroke-width="8" stroke-miterlimit="10"><path d="M3108 7.5c-5.435 0-10.653 2.161-14.496 6.004-3.843 3.843-6.004 9.061-6.004 14.496 0 5.435 2.161 10.653 6.004 14.496 3.843 3.843 9.061 6.004 14.496 6.004 5.435 0 10.653-2.161 14.496-6.004 3.843-3.843 6.004-9.061 6.004-14.496 0-5.435-2.161-10.653-6.004-14.496-3.843-3.843-9.061-6.004-14.496-6.004z" stroke-dasharray="0,128.93377412816648" stroke-dashoffset="128.804969"/><path d="M3093.5 13.5l29 29"/><path d="M3122.5 13.5l-29 29" stroke-dasharray="39.49980445402839,1.5534010481001852" stroke-dashoffset="41.012193"/></g><g fill="none" stroke="#1a1a1a" stroke-width="8" stroke-miterlimit="10"><path d="M3164 7.5c-5.435 0-10.653 2.161-14.496 6.004-3.843 3.843-6.004 9.061-6.004 14.496 0 5.435 2.161 10.653 6.004 14.496 3.843 3.843 9.061 6.004 14.496 6.004 5.435 0 10.653-2.161 14.496-6.004 3.843-3.843 6.004-9.061 6.004-14.496 0-5.435-2.161-10.653-6.004-14.496-3.843-3.843-9.061-6.004-14.496-6.004z" stroke-dasharray="0,128.93377412816648" stroke-dashoffset="128.804969"/><path d="M3149.5 13.5l29 29"/><path d="M3178.5 13.5l-29 29" stroke-dasharray="40.08908295536972,0.9641225467588584" stroke-dashoffset="41.012193"/></g><g fill="none" stroke="#1a1a1a" stroke-width="8" stroke-miterlimit="10"><path d="M3220 7.5c-5.435 0-10.653 2.161-14.496 6.004-3.843 3.843-6.004 9.061-6.004 14.496 0 5.435 2.161 10.653 6.004 14.496 3.843 3.843 9.061 6.004 14.496 6.004 5.435 0 10.653-2.161 14.496-6.004 3.843-3.843 6.004-9.061 6.004-14.496 0-5.435-2.161-10.653-6.004-14.496-3.843-3.843-9.061-6.004-14.496-6.004z" stroke-dasharray="0,128.93377412816648" stroke-dashoffset="128.804969"/><path d="M3205.5 13.5l29 29"/><path d="M3234.5 13.5l-29 29" stroke-dasharray="40.515524716322254,0.5376807858063235" stroke-dashoffset="41.012193"/></g><g fill="none" stroke="#1a1a1a" stroke-width="8" stroke-miterlimit="10"><path d="M3276 7.5c-5.435 0-10.653 2.161-14.496 6.004-3.843 3.843-6.004 9.061-6.004 14.496 0 5.435 2.161 10.653 6.004 14.496 3.843 3.843 9.061 6.004 14.496 6.004 5.435 0 10.653-2.161 14.496-6.004 3.843-3.843 6.004-9.061 6.004-14.496 0-5.435-2.161-10.653-6.004-14.496-3.843-3.843-9.061-6.004-14.496-6.004z" stroke-dasharray="0,128.93377412816648" stroke-dashoffset="128.804969"/><path d="M3261.5 13.5l29 29"/><path d="M3290.5 13.5l-29 29" stroke-dasharray="40.80050356523458,0.2527019368940044" stroke-dashoffset="41.012193"/></g><g fill="none" stroke="#1a1a1a" stroke-width="8" stroke-miterlimit="10"><path d="M3332 7.5c-5.435 0-10.653 2.161-14.496 6.004-3.843 3.843-6.004 9.061-6.004 14.496 0 5.435 2.161 10.653 6.004 14.496 3.843 3.843 9.061 6.004 14.496 6.004 5.435 0 10.653-2.161 14.496-6.004 3.843-3.843 6.004-9.061 6.004-14.496 0-5.435-2.161-10.653-6.004-14.496-3.843-3.843-9.061-6.004-14.496-6.004z" stroke-dasharray="0,128.93377412816648" stroke-dashoffset="128.804969"/><path d="M3317.5 13.5l29 29"/><path d="M3346.5 13.5l-29 29" stroke-dasharray="40.96132451464546,0.09188098748311667" stroke-dashoffset="41.012193"/></g><g fill="none" stroke="#1a1a1a" stroke-width="8" stroke-miterlimit="10"><path d="M3388 7.5c-5.435 0-10.653 2.161-14.496 6.004-3.843 3.843-6.004 9.061-6.004 14.496 0 5.435 2.161 10.653 6.004 14.496 3.843 3.843 9.061 6.004 14.496 6.004 5.435 0 10.653-2.161 14.496-6.004 3.843-3.843 6.004-9.061 6.004-14.496 0-5.435-2.161-10.653-6.004-14.496-3.843-3.843-9.061-6.004-14.496-6.004z" stroke-dasharray="0,128.93377412816648" stroke-dashoffset="128.804969"/><path d="M3373.5 13.5l29 29M3402.5 13.5l-29 29"/></g></svg>