<svg xmlns="http://www.w3.org/2000/svg" viewBox="0 0 51.33 48.05"><defs><style>.cls-1{fill:#1a1a1a;}</style></defs><title>logoSidebar</title><g id="Layer_2" data-name="Layer 2"><g id="Layer_1-2" data-name="Layer 1"><path class="cls-1" d="M23.3,24.76c-3,.77-4.56-3-8.7-3-4.71,0-9,5-10.51,9.34C2.15,36.67,4,43,8.73,47.73c-6.6-5-10-12.49-8.32-19.28,1.46-6.13,6.44-9.53,8.53-10.95,6.09-4.15,15.7-6.6,18.36-3.4C29.55,16.82,27,23.81,23.3,24.76Z"/><path class="cls-1" d="M24.38,28.69c1.77,2.37-1.25,5.25.23,8.94,1.69,4.22,7.89,6.17,12.56,5.87C43.1,43.13,48.52,39,51.33,33c-2.45,7.85-8.41,13.72-15.45,14.86-6.34,1-11.31-2.14-13.4-3.47-6.07-3.88-11.75-11.57-9.63-15.18C14.65,26.12,22.2,25.78,24.38,28.69Z"/><path class="cls-1" d="M26.78,26c1.3-2.67,5.33-1.4,8-4.45,3-3.47,1.82-9.79-.66-13.71C30.94,2.83,24.64.07,17.86.49c8.25-1.6,16.39.8,20.77,6.37,3.94,5,3.43,10.86,3.21,13.31C41.22,27.3,37,35.9,32.7,35.77,29.07,35.66,25.18,29.25,26.78,26Z"/></g></g></svg>